<svg version="1.2" xmlns="http://www.w3.org/2000/svg" viewBox="0 0 1280 148" width="1280" height="148">
	<title>texttobraille</title>
	<style>
		.s0 { fill: #000000 } 
		.s1 { fill: #0048ff } 
		.s2 { fill: #00d341 } 
	</style>
	<path id="text∙to∙braille" class="s0" aria-label="text∙to∙braille"  d="m61.1 129.5v14.9q-7.9 1.6-15.9 1.6-13.3 0-19.1-3.4-6.8-4-7.5-12.7-0.2-2.4-0.3-11.2v-64.4h-17.5v-14h17.5v-27.9h18v27.9h25.4v14h-25.4v64q0 6.8 1.5 8.9 2.7 3.4 10.6 3.4 7 0 12.7-1.1zm100.8-16.4h19.9q-4.2 11-12.3 18.6-15.8 14.8-40.7 14.8-24.7 0-39.9-13.5-16.7-14.8-16.7-39.7 0-25 16.7-41.1 15.8-15.4 40.2-15.4 13.4 0 24.8 5 11.3 5.1 18.8 14.2 9.9 12.3 11.7 30.1 0.4 3.5 0.6 11.3h-93.9q4.7 33.7 39 33.7 24.2 0 31.8-18zm-70.8-29.7h74.6q-1.7-11-8.1-18.6-10.8-12.6-28.8-12.6-12.5 0-22 6.2-7.4 4.9-11.9 14.6-1.8 4-3.8 10.4zm123.6 59.6h-26l45.6-52.7-43.2-50h24.7l31.1 36.5 30.3-36.5h25l-42.9 50 47 52.7h-26.4l-33-39zm152.7-13.5v14.9q-7.9 1.5-15.9 1.5-13.3 0-19.1-3.3-6.8-4-7.5-12.7-0.2-2.5-0.3-11.2v-64.4h-17.5v-14h17.5v-27.9h18v27.9h25.4v14h-25.4v63.9q0 6.9 1.5 8.9 2.7 3.5 10.6 3.5 7 0 12.7-1.1zm115.9 0v14.9q-7.9 1.5-16 1.5-13.3 0-19.1-3.3-6.7-4-7.4-12.7-0.2-2.5-0.3-11.2v-64.4h-17.5v-14h17.5v-27.9h17.9v27.9h25.5v14h-25.5v63.9q0 6.9 1.6 8.9 2.6 3.5 10.6 3.5 6.9 0 12.7-1.1zm71.6-92.7q27.8 0 43.7 17.1 7.6 8 11.4 20.1 2.9 9.3 2.9 19 0 22.8-15.6 37.7-16.5 15.7-43.7 15.7-25.7 0-42-14.9-17.2-15.6-17.2-39.6 0-17.8 9.4-31.7 15.7-23.4 51.1-23.4zm-1 15.3q-16.8 0-28.3 11-11.3 10.7-11.3 29.4 0 18 10.9 28 11.3 10.6 29.2 10.6 19.1 0 29.9-12.8 8.7-10.2 8.7-26.4 0-16.6-8.7-26.7-11.2-13.1-30.4-13.1zm131.3-48.6h17.9v56.2q13.7-22.4 43.3-22.4 25.6 0 40.8 16.3 14.4 15.2 14.4 37.9 0 25.5-17.7 41.1-15.1 13.3-37.6 13.3-17.7 0-31-8.8-7.7-5-12.2-12.4v18.3h-17.9zm57 49.1q-18.2 0-29.9 12.6-10.1 10.9-10.1 26.9 0 15.4 10.1 26.2 11.4 12.3 30.3 12.3 16.7 0 27.4-10.1 11.7-11.2 11.7-29.7 0-16.6-9.9-26.5-11.6-11.7-29.6-11.7zm100.4 90.3h-18.1v-102.6h18.1v24q6.8-13.1 12.8-18.5 9.7-8.5 24.3-8.5 4.3 0 9.4 1.2v18.3q-6.9-1.5-12.3-1.5-16.2 0-26.8 11.5-7.4 8.1-7.4 24.9zm176.8-14.5v13.2q-4.9 1.9-12.2 1.9-7.7 0-11.9-2.3-8.1-4.4-9.7-15.2-13.4 20.4-44.4 20.4-18.3 0-29.9-8.2-11.8-8.2-11.8-23.5 0-18.8 19.1-26.6 7.2-3 26.9-5.2l9.6-1.1q19.4-2.1 23.2-3.3 7-2.4 7-10.1 0-8-8.1-12.2-7.9-4.1-21.5-4.1-19.7 0-26.8 6.3-5.4 4.7-6.4 13.6h-19.1q2.2-16.8 13.8-25.7 12.6-9.5 37.4-9.5 21.4 0 32.7 5 11.9 5.2 14.8 15.8 1.5 5.4 1.5 18.2v41.6q0 7.9 3.5 10.1 2 1.2 7.6 1.2 1.9 0 4.7-0.3zm-33.2-39.7q-7.1 2.9-14 4.5-6.2 1.5-21.5 3.9-19.6 3.1-23.8 5.6-7.4 4.5-7.4 11.9 0 7.7 7.9 12.2 7.4 4.3 17.3 4.3 8.3 0 16.6-2.9 8.5-2.9 14.8-7.9 7.2-6 8.8-14.6 1.3-6.9 1.3-17zm65.2 54.2h-17.9v-102.6h17.9zm0-119.9h-17.9v-19.6h17.9zm46.1 119.8h-17.9v-139.4h17.9zm46.1 0h-18v-139.5h18zm112.6-29.9h19.8q-4.2 11-12.2 18.6-15.9 14.8-40.7 14.8-24.7 0-39.9-13.5-16.7-14.8-16.7-39.6 0-25.1 16.7-41.2 15.8-15.3 40.2-15.3 13.4 0 24.7 5 11.4 5 18.8 14.2 10 12.2 11.8 30 0.4 3.5 0.6 11.3h-93.9q4.7 33.8 38.9 33.8 24.3 0 31.9-18.1zm-70.8-29.7h74.6q-1.7-11-8.2-18.6-10.7-12.6-28.7-12.6-12.6 0-22.1 6.2-7.3 4.9-11.8 14.6-1.8 4-3.8 10.4z"/>
	<path id="text∙to∙braille" class="s1" aria-label="text∙to∙braille"  d="m408.1 100.9h-21v-20.4h21z"/>
	<path id="text∙to∙braille" class="s2" aria-label="text∙to∙braille"  d="m657 100.9h-21v-20.4h21z"/>
</svg>